<svg width="32" height="32" viewBox="0 0 32 32" fill="none" xmlns="http://www.w3.org/2000/svg">
<path d="M11.3216 21.0436C7.934 17.656 5.31134 13.4792 5.31134 10.0066C5.31134 8.46458 5.8213 7.06826 6.98693 5.93906C7.7033 5.24697 8.51681 4.87057 9.29389 4.87057C9.93741 4.87057 10.5324 5.1377 10.9695 5.73265L13.5071 9.3388C13.8714 9.84876 14.0535 10.298 14.0535 10.7351C14.0535 11.2694 13.7621 11.7793 13.2279 12.3621L12.3658 13.2728C12.2322 13.4063 12.1837 13.5521 12.1837 13.7099C12.1837 13.8556 12.2444 14.0134 12.3051 14.147C12.6572 14.8877 13.7257 16.1747 14.952 17.4132C16.1905 18.6517 17.4897 19.6837 18.2061 20.0601C18.3396 20.1208 18.5096 20.1815 18.6796 20.1815C18.8374 20.1815 19.0074 20.133 19.1289 19.9994L20.0152 19.1373C20.5859 18.591 21.0958 18.2995 21.6301 18.2995C22.0672 18.2995 22.5165 18.4938 23.0143 18.8459L26.7297 21.4564C27.3125 21.8693 27.5432 22.4278 27.5432 23.0106C27.5432 23.8241 27.0697 24.6741 26.4504 25.3297C25.3455 26.5318 23.9735 27.0782 22.395 27.0782C18.9103 27.0782 14.6971 24.4191 11.3216 21.0436Z" fill="black"/>
</svg>
