<svg width="32" height="32" viewBox="0 0 32 32" fill="none" xmlns="http://www.w3.org/2000/svg">
<path fill-rule="evenodd" clip-rule="evenodd" d="M4.87666 26.2151L4.87341 26.2197L4.87321 26.2199C4.706 26.4546 4.68382 26.7629 4.81573 27.0191C4.9477 27.2753 5.21177 27.4363 5.49999 27.4363H5.50082H5.5017L5.50365 27.4363L5.50821 27.4363L5.52001 27.4361C5.52906 27.436 5.54047 27.4357 5.55417 27.4352C5.58157 27.4343 5.61815 27.4326 5.66334 27.4294C5.75371 27.423 5.87867 27.4108 6.03375 27.3875C6.34391 27.3409 6.77501 27.2498 7.29101 27.072C8.31884 26.7177 9.67288 26.0227 11.0709 24.6667C11.4506 24.6956 11.8354 24.7104 12.2244 24.7104C18.6653 24.7104 24.2185 20.5799 24.2185 15.1216C24.2185 9.66321 18.6653 5.53272 12.2244 5.53272C5.7835 5.53272 0.230316 9.66321 0.230316 15.1216C0.230316 18.2149 2.04624 20.9077 4.75611 22.6306C5.08489 22.8396 5.42735 23.0348 5.78209 23.2153C5.90866 23.2797 5.9714 23.3611 5.98185 23.5782C5.99459 23.843 5.90966 24.2111 5.7393 24.6369C5.57476 25.0481 5.35835 25.4455 5.17802 25.746C5.08884 25.8946 5.01071 26.0158 4.95561 26.0988C4.92811 26.1403 4.90648 26.172 4.89224 26.1926L4.88655 26.2009L4.87666 26.2151ZM20.5294 24.3076C20.3192 24.3076 20.1099 24.3029 19.9018 24.2936C23.7189 22.4164 26.3334 19.083 26.3334 15.1318C26.3334 11.3907 23.9897 8.20355 20.5006 6.28177L20.5294 6.28174C26.5591 6.28174 31.786 10.1509 31.786 15.2947C31.786 18.2088 30.0753 20.7403 27.5326 22.3569C27.2461 22.539 26.6279 22.9184 26.2798 23.0955C26.207 23.1325 26.1754 23.1583 26.1717 23.3037C26.1664 23.5051 26.2414 23.8045 26.4018 24.1695C26.5553 24.5188 26.7551 24.8578 26.9223 25.1157C27.0048 25.2429 27.0768 25.3466 27.1275 25.4174C27.1527 25.4528 27.1725 25.4797 27.1855 25.4972L27.1995 25.5159L27.2021 25.5193L27.2023 25.5197C27.3842 25.7571 27.4156 26.0772 27.2833 26.3454C27.1509 26.6138 26.8776 26.7838 26.5784 26.7838C25.7743 26.7838 24.8904 26.3669 24.1453 25.9217C23.3652 25.4556 22.5901 24.8661 21.9679 24.3567C21.9201 24.3175 21.857 24.295 21.7905 24.2961C21.3491 24.3034 20.7115 24.3076 20.5294 24.3076Z" fill="black"/>
</svg>
