<svg width="32" height="32" viewBox="0 0 32 32" fill="none" xmlns="http://www.w3.org/2000/svg">
<path fill-rule="evenodd" clip-rule="evenodd" d="M16.1323 5.4675C14.0511 5.44135 12.0087 6.03239 10.2631 7.166C9.89256 7.40664 9.3971 7.30133 9.15646 6.93078C8.91583 6.56023 9.02114 6.06477 9.39169 5.82413C11.4025 4.51832 13.755 3.83751 16.1524 3.86763C18.5498 3.89774 20.8845 4.63745 22.8618 5.99335C23.2262 6.24322 23.319 6.74118 23.0692 7.10556C22.8193 7.46995 22.3213 7.56278 21.9569 7.31291C20.2404 6.13581 18.2135 5.49365 16.1323 5.4675ZM25.1428 9.25518C25.516 9.01857 26.0103 9.12925 26.2469 9.50238C27.5203 11.5106 28.1756 13.8488 28.1312 16.2264C28.0868 18.604 27.3448 20.9161 25.9973 22.8754C25.7469 23.2395 25.2488 23.3316 24.8848 23.0813C24.5207 22.8309 24.4286 22.3328 24.6789 21.9688C25.8488 20.2678 26.4929 18.2606 26.5315 16.1966C26.57 14.1325 26.0011 12.1026 24.8956 10.3592C24.659 9.98608 24.7697 9.49179 25.1428 9.25518ZM7.26259 10.1171C7.50935 9.75056 7.41229 9.25342 7.0458 9.00665C6.6793 8.75989 6.18215 8.85695 5.93539 9.22344C4.67315 11.0981 3.95959 13.2881 3.87512 15.5465C3.79468 17.6972 4.28779 19.8286 5.30112 21.723L4.29822 25.821C4.04698 26.8476 4.93123 27.7949 5.9727 27.6149L10.525 26.8279C12.373 27.7623 14.431 28.2089 16.5032 28.1229C18.6684 28.033 20.77 27.3649 22.5897 26.1879C22.9606 25.948 23.0669 25.4527 22.8269 25.0817C22.5869 24.7107 22.0917 24.6045 21.7207 24.8445C20.141 25.8662 18.3165 26.4463 16.4368 26.5243C14.5571 26.6023 12.6909 26.1755 11.0319 25.2882C10.8748 25.2041 10.694 25.1749 10.5183 25.2053L5.90076 26.0036L6.92948 21.8C6.97811 21.6013 6.94878 21.3916 6.84754 21.2138C5.87638 19.5091 5.40067 17.5669 5.474 15.6063C5.54733 13.6457 6.1668 11.7445 7.26259 10.1171ZM16 8.2C11.6922 8.2 8.19997 11.6922 8.19997 16C8.19997 20.3078 11.6922 23.8 16 23.8C20.3078 23.8 23.8 20.3078 23.8 16C23.8 11.6922 20.3078 8.2 16 8.2Z" fill="black"/>
</svg>
