<svg width="32" height="32" viewBox="0 0 32 32" fill="none" xmlns="http://www.w3.org/2000/svg">
<path fill-rule="evenodd" clip-rule="evenodd" d="M11.3666 10.4166C11.3666 7.70726 13.3654 5.36664 16 5.36664C18.6345 5.36664 20.6333 7.70726 20.6333 10.4166C20.6333 13.126 18.6345 15.4666 16 15.4666C13.3654 15.4666 11.3666 13.126 11.3666 10.4166ZM8.84294 20.0122C10.3925 18.6118 12.6811 17.5333 16 17.5333C19.3188 17.5333 21.6074 18.6118 23.157 20.0122C24.6896 21.3973 25.4475 23.0493 25.8086 24.1356C26.1996 25.3123 25.247 26.3 24.1841 26.3H7.81584C6.7529 26.3 5.80028 25.3123 6.19132 24.1356C6.55237 23.0493 7.31028 21.3973 8.84294 20.0122ZM25.6666 8.86664C23.7529 8.86664 22.3666 10.5904 22.3666 12.5C22.3666 14.4096 23.7529 16.1333 25.6666 16.1333C27.5803 16.1333 28.9666 14.4096 28.9666 12.5C28.9666 10.5904 27.5803 8.86664 25.6666 8.86664ZM27.4837 24.8H30.2507C31.0837 24.8 31.8672 24.0981 31.7258 23.1389C31.6085 22.3428 31.2948 21.0402 30.4275 19.9211C29.5304 18.7635 28.0879 17.8666 25.8788 17.8666C24.995 17.8666 24.2393 18.0231 23.5965 18.289C24.1363 18.7148 24.6197 19.1775 25.0516 19.6618C25.818 20.521 26.4175 21.4418 26.8852 22.3334C27.2702 23.0673 27.4233 24.074 27.4837 24.8ZM8.35541 18.3282C7.83547 18.7431 7.36839 19.1924 6.94965 19.6618C6.18328 20.521 5.58379 21.4418 5.11608 22.3334C4.73107 23.0673 4.57805 24.0741 4.51757 24.8H1.74997C0.915873 24.8 0.136902 24.0989 0.270986 23.144C0.382163 22.3523 0.679553 21.0536 1.50469 19.9358C2.35991 18.7772 3.7464 17.8666 5.87801 17.8666C6.84434 17.8666 7.66396 18.0382 8.35541 18.3282ZM3.03328 12.5C3.03328 10.5904 4.41959 8.86664 6.33328 8.86664C8.24698 8.86664 9.63328 10.5904 9.63328 12.5C9.63328 14.4096 8.24698 16.1333 6.33328 16.1333C4.41959 16.1333 3.03328 14.4096 3.03328 12.5Z" fill="black"/>
</svg>
