<svg width="33" height="32" viewBox="0 0 33 32" fill="none" xmlns="http://www.w3.org/2000/svg">
<path d="M22.996 27.236C19.6084 27.236 15.5166 25.0019 11.7769 21.2743C8.02502 17.5225 5.81519 13.4185 5.81519 10.0066C5.81519 8.08822 6.37371 6.67975 7.68504 5.46556C7.77004 5.39271 7.84289 5.31986 7.91574 5.25915C8.69282 4.53063 9.50633 4.16637 10.247 4.17852C11.0362 4.2028 11.7647 4.62777 12.3961 5.55055L14.8245 9.07171C15.5166 10.0674 15.6259 11.2451 14.5938 12.3015L13.7196 13.1878C13.4525 13.4549 13.4039 13.7464 13.586 14.0742C14.0717 14.9241 14.8731 15.8348 16.0023 16.964C17.0343 17.996 18.3821 19.1009 18.977 19.4652C19.3049 19.6473 19.5963 19.5988 19.8634 19.3316L20.7498 18.4574C21.8061 17.4254 22.9839 17.5346 23.9795 18.2267L27.5007 20.6551C28.4235 21.2865 28.8727 22.015 28.8727 22.8042C28.8727 23.5449 28.5206 24.3463 27.7921 25.1355C27.7314 25.2083 27.6585 25.2812 27.5857 25.3662C26.3593 26.6896 24.9387 27.236 22.996 27.236ZM23.0082 25.7669C24.3802 25.7547 25.5822 25.2933 26.4929 24.3098C26.5415 24.237 26.5779 24.2006 26.6386 24.1277C27.0514 23.6785 27.2578 23.2292 27.2578 22.8285C27.2578 22.44 27.1 22.1121 26.6993 21.8572L23.1903 19.5016C22.741 19.1981 22.2311 19.1495 21.7333 19.6473L20.7498 20.643C20.0212 21.3715 19.0863 21.3472 18.3578 20.8494C17.5079 20.2666 16.1115 19.0767 15.0066 17.9596C13.9139 16.8547 12.7847 15.5434 12.2018 14.6934C11.704 13.9649 11.6797 13.03 12.4083 12.3015L13.4039 11.318C13.9017 10.8202 13.8531 10.3102 13.5496 9.86094L11.1941 6.35192C10.9391 5.95124 10.6112 5.79339 10.2227 5.79339C9.83416 5.79339 9.37277 5.99981 8.92352 6.41263C8.86281 6.4612 8.81424 6.50977 8.74139 6.55833C7.75789 7.46898 7.2965 8.65889 7.28436 10.0066C7.24793 13.115 9.65203 17.0854 12.8575 20.2787C16.0387 23.472 19.912 25.8033 23.0082 25.7669Z" fill="#767779"/>
</svg>
