<svg width="33" height="32" viewBox="0 0 33 32" fill="none" xmlns="http://www.w3.org/2000/svg">
<g clip-path="url(#clip0_2002_6115)">
<path fill-rule="evenodd" clip-rule="evenodd" d="M2.04998 15.1666C2.04998 10.7148 6.72468 6.79995 12.9166 6.79995C19.1086 6.79995 23.7833 10.7148 23.7833 15.1666C23.7833 19.6184 19.1086 23.5333 12.9166 23.5333C12.5394 23.5333 12.1669 23.5184 11.7999 23.4895C11.3645 23.4551 10.9397 23.6128 10.6315 23.9116C9.35111 25.1535 8.06296 25.7658 7.10745 26.069C7.05691 26.0851 7.0073 26.1002 6.95865 26.1146C7.0433 25.9136 7.12837 25.7013 7.20842 25.4854C7.40244 24.9621 7.58638 24.3666 7.64416 23.8402C7.67283 23.5791 7.67755 23.2775 7.59996 22.9892C7.51796 22.6846 7.32722 22.3472 6.94612 22.1533C6.622 21.9884 6.31042 21.8107 6.01253 21.6213C3.5426 20.051 2.04998 17.7108 2.04998 15.1666ZM4.8764 26.7921L4.87573 26.7934L4.87571 26.7934L4.87569 26.7934C4.74492 27.0414 4.75348 27.3397 4.89826 27.5798C5.04305 27.8199 5.30295 27.9666 5.58332 27.9666V27.1666C5.58332 27.9666 5.58369 27.9666 5.58409 27.9666L5.58492 27.9666L5.58679 27.9666L5.59133 27.9666L5.60354 27.9664C5.61305 27.9663 5.62533 27.966 5.64026 27.9656C5.67012 27.9647 5.71065 27.963 5.76111 27.9598C5.86201 27.9534 6.00284 27.9412 6.17773 27.9175C6.52729 27.8702 7.01444 27.7772 7.59147 27.594C8.74014 27.2295 10.2425 26.5083 11.7168 25.0878C12.1118 25.1179 12.5121 25.1333 12.9166 25.1333C14.6302 25.1333 16.2833 24.852 17.7947 24.3383C18.6915 24.518 19.6293 24.6132 20.5938 24.6132C20.7204 24.6132 20.8466 24.6116 20.9723 24.6083C21.0422 24.6065 21.1001 24.6291 21.14 24.6623C22.3611 25.6763 24.3529 27.2143 26.7747 27.1396C27.0466 27.1312 27.2955 26.9852 27.4357 26.7521C27.5757 26.519 27.5878 26.2307 27.4678 25.9867L27.4678 25.9867L27.4677 25.9867L27.4677 25.9865L27.4673 25.9858L27.4648 25.9806L27.4535 25.9572C27.4433 25.9361 27.428 25.904 27.4086 25.8625C27.3698 25.7794 27.3147 25.6589 27.2511 25.5125C27.123 25.2177 26.9645 24.8271 26.8346 24.4293C26.7008 24.0195 26.615 23.6541 26.601 23.3937C26.5989 23.3555 26.5985 23.3241 26.5989 23.2987C26.9602 23.1012 27.4679 22.7889 27.7212 22.6279C30.3089 20.9827 32.05 18.4063 32.05 15.4405C32.05 10.2056 26.7304 6.26782 20.5938 6.26782C19.9902 6.26782 19.3971 6.3051 18.818 6.37703L18.8194 6.38797C17.0446 5.62635 15.0265 5.19995 12.9166 5.19995C6.22197 5.19995 0.449982 9.4932 0.449982 15.1666C0.449982 18.3819 2.33746 21.1808 5.1541 22.9715C5.44701 23.1577 5.75036 23.3334 6.06324 23.498C6.0637 23.5389 6.06157 23.5941 6.05372 23.6656C6.01776 23.9932 5.88919 24.441 5.70821 24.9292C5.53161 25.4055 5.32327 25.8727 5.157 26.2242C5.07432 26.399 5.00308 26.5431 4.95286 26.6427C4.92777 26.6925 4.90798 26.7312 4.89471 26.7568L4.87986 26.7855L4.8764 26.7921ZM21.4509 7.89561C23.8515 9.68749 25.3833 12.2439 25.3833 15.1666C25.3833 18.4184 23.4872 21.2168 20.6079 23.0132C20.716 23.0131 20.8236 23.0117 20.9308 23.0089C21.37 22.9975 21.8103 23.1392 22.1622 23.4313C23.103 24.2126 24.2262 25.0479 25.4749 25.3865C25.4197 25.238 25.365 25.0832 25.3136 24.9259C25.1666 24.4754 25.0287 23.9515 25.0033 23.4796C24.9823 23.0896 25.0191 22.3105 25.7205 21.9536C25.999 21.8119 26.5702 21.4637 26.8628 21.2777C29.1037 19.8529 30.45 17.7353 30.45 15.4405C30.45 11.6335 26.6505 8.23487 21.4509 7.89561ZM26.6093 23.205C26.6087 23.2042 26.6064 23.2101 26.6041 23.2248C26.6087 23.213 26.6098 23.2057 26.6093 23.205Z" fill="#767779"/>
</g>
<defs>
<clipPath id="clip0_2002_6115">
<rect width="32" height="32" fill="white" transform="translate(0.25)"/>
</clipPath>
</defs>
</svg>
