<svg width="33" height="32" viewBox="0 0 33 32" fill="none" xmlns="http://www.w3.org/2000/svg">
<g clip-path="url(#clip0_2002_2718)">
<path fill-rule="evenodd" clip-rule="evenodd" d="M16.5 6.9667C14.9004 6.9667 13.4667 8.43166 13.4667 10.4167C13.4667 12.4017 14.9004 13.8667 16.5 13.8667C18.0996 13.8667 19.5333 12.4017 19.5333 10.4167C19.5333 8.43166 18.0996 6.9667 16.5 6.9667ZM11.8667 10.4167C11.8667 7.70732 13.8654 5.3667 16.5 5.3667C19.1346 5.3667 21.1333 7.70732 21.1333 10.4167C21.1333 13.1261 19.1346 15.4667 16.5 15.4667C13.8654 15.4667 11.8667 13.1261 11.8667 10.4167ZM10.4158 21.1993C9.15547 22.3383 8.51766 23.7137 8.20971 24.6403C8.20813 24.6451 8.20719 24.6488 8.20663 24.6516C8.20619 24.6538 8.20599 24.6555 8.20591 24.6566L8.20737 24.659L8.20898 24.6611C8.21808 24.6725 8.25002 24.7 8.31589 24.7H24.6841C24.75 24.7 24.7819 24.6725 24.791 24.6611C24.7926 24.6591 24.7936 24.6576 24.7941 24.6566C24.7939 24.6541 24.7931 24.6489 24.7903 24.6403C24.4823 23.7137 23.8445 22.3383 22.5842 21.1993C21.3408 20.0757 19.4391 19.1334 16.5 19.1334C13.5609 19.1334 11.6591 20.0757 10.4158 21.1993ZM9.34299 20.0123C10.8926 18.6119 13.1811 17.5334 16.5 17.5334C19.8189 17.5334 22.1074 18.6119 23.657 20.0123C25.1897 21.3974 25.9476 23.0493 26.3086 24.1357C26.6997 25.3124 25.747 26.3 24.6841 26.3H8.31589C7.25295 26.3 6.30032 25.3124 6.69137 24.1357C7.05242 23.0493 7.81032 21.3974 9.34299 20.0123ZM24.4667 12.4999C24.4667 11.2799 25.3189 10.4666 26.1667 10.4666C27.0144 10.4666 27.8667 11.2799 27.8667 12.4999C27.8667 13.72 27.0144 14.5333 26.1667 14.5333C25.3189 14.5333 24.4667 13.72 24.4667 12.4999ZM26.1667 8.86662C24.253 8.86662 22.8667 10.5903 22.8667 12.4999C22.8667 14.4095 24.253 16.1333 26.1667 16.1333C28.0804 16.1333 29.4667 14.4095 29.4667 12.4999C29.4667 10.5903 28.0804 8.86662 26.1667 8.86662ZM27.9838 24.8H30.75C31.5829 24.8 32.3665 24.0981 32.2251 23.1389C32.1078 22.3428 31.794 21.0402 30.9267 19.9211C30.0296 18.7635 28.5872 17.8666 26.3781 17.8666C25.4945 17.8666 24.739 18.0231 24.0963 18.2888C24.5942 18.6815 25.0441 19.1056 25.4499 19.5491C25.7308 19.4958 26.0391 19.4666 26.3781 19.4666C28.0879 19.4666 29.0652 20.1309 29.6621 20.9012C30.2371 21.6431 30.4988 22.5393 30.6144 23.2H27.7157C27.8679 23.7513 27.9449 24.3336 27.9838 24.8ZM5.28575 23.2H2.38098C2.49124 22.5346 2.7417 21.6315 3.29201 20.886C3.85968 20.117 4.7776 19.4666 6.37806 19.4666C6.80291 19.4666 7.18254 19.5077 7.52234 19.5811C7.92227 19.1409 8.36539 18.7193 8.85546 18.3282C8.16401 18.0382 7.34439 17.8666 6.37806 17.8666C4.24645 17.8666 2.85996 18.7772 2.00473 19.9358C1.1796 21.0536 0.882209 22.3523 0.771031 23.144C0.636948 24.0989 1.41592 24.8 2.25002 24.8H5.01762C5.05648 24.3336 5.13352 23.7513 5.28575 23.2ZM6.83334 10.4666C5.98561 10.4666 5.13334 11.2799 5.13334 12.4999C5.13334 13.72 5.98561 14.5333 6.83334 14.5333C7.68106 14.5333 8.53334 13.72 8.53334 12.4999C8.53334 11.2799 7.68106 10.4666 6.83334 10.4666ZM3.53334 12.4999C3.53334 10.5903 4.91964 8.86662 6.83334 8.86662C8.74704 8.86662 10.1333 10.5903 10.1333 12.4999C10.1333 14.4095 8.74704 16.1333 6.83334 16.1333C4.91964 16.1333 3.53334 14.4095 3.53334 12.4999Z" fill="#767779"/>
</g>
<defs>
<clipPath id="clip0_2002_2718">
<rect width="32" height="32" fill="white" transform="translate(0.5)"/>
</clipPath>
</defs>
</svg>
