<svg width="32" height="32" viewBox="0 0 32 32" fill="none" xmlns="http://www.w3.org/2000/svg">
<path fill-rule="evenodd" clip-rule="evenodd" d="M10.2631 7.16603C12.0087 6.03242 14.0511 5.44138 16.1323 5.46753C18.2135 5.49368 20.2404 6.13584 21.9569 7.31294C22.3213 7.56281 22.8193 7.46998 23.0692 7.10559C23.319 6.74121 23.2262 6.24325 22.8618 5.99339C20.8845 4.63748 18.5498 3.89778 16.1524 3.86766C13.755 3.83754 11.4025 4.51835 9.39169 5.82416C9.02114 6.0648 8.91583 6.56026 9.15646 6.93081C9.3971 7.30136 9.89256 7.40667 10.2631 7.16603ZM26.2469 9.50241C26.0103 9.12928 25.516 9.0186 25.1428 9.25521C24.7697 9.49182 24.659 9.98611 24.8956 10.3592C26.0011 12.1027 26.57 14.1325 26.5315 16.1966C26.4929 18.2606 25.8488 20.2678 24.6789 21.9688C24.4286 22.3329 24.5207 22.8309 24.8848 23.0813C25.2488 23.3317 25.7469 23.2395 25.9973 22.8755C27.3448 20.9161 28.0868 18.604 28.1312 16.2264C28.1756 13.8489 27.5203 11.5107 26.2469 9.50241ZM7.0458 9.00668C7.41229 9.25345 7.50935 9.75059 7.26259 10.1171C6.1668 11.7446 5.54733 13.6457 5.474 15.6063C5.40067 17.567 5.87638 19.5091 6.84754 21.2139C6.94878 21.3916 6.97811 21.6014 6.92948 21.8L5.90076 26.0036L10.5183 25.2053C10.694 25.175 10.8748 25.2041 11.0319 25.2882C12.6909 26.1755 14.5571 26.6023 16.4368 26.5243C18.3165 26.4463 20.141 25.8663 21.7207 24.8445C22.0917 24.6045 22.5869 24.7108 22.8269 25.0818C23.0669 25.4527 22.9606 25.948 22.5897 26.188C20.77 27.3649 18.6684 28.0331 16.5032 28.1229C14.431 28.209 12.373 27.7623 10.525 26.8279L5.9727 27.6149C4.93123 27.795 4.04698 26.8477 4.29822 25.821L5.30112 21.723C4.28779 19.8287 3.79468 17.6973 3.87512 15.5465C3.95959 13.2881 4.67315 11.0982 5.93539 9.22347C6.18215 8.85698 6.6793 8.75992 7.0458 9.00668ZM9.79997 16C9.79997 12.5759 12.5758 9.80003 16 9.80003C19.4241 9.80003 22.2 12.5759 22.2 16C22.2 19.4242 19.4241 22.2 16 22.2C12.5758 22.2 9.79997 19.4242 9.79997 16ZM16 8.20003C11.6922 8.20003 8.19997 11.6922 8.19997 16C8.19997 20.3079 11.6922 23.8 16 23.8C20.3078 23.8 23.8 20.3079 23.8 16C23.8 11.6922 20.3078 8.20003 16 8.20003Z" fill="#767779"/>
</svg>
