<svg width="32" height="32" viewBox="0 0 32 32" fill="none" xmlns="http://www.w3.org/2000/svg">
<path d="M16.0001 27.7644C16.3026 27.7644 16.5926 27.7392 16.9077 27.714L17.5884 29.0123C17.7144 29.2896 18.0043 29.4409 18.3447 29.3904C18.6598 29.34 18.8741 29.1005 18.9245 28.7728L19.1262 27.3358C19.706 27.1845 20.2733 26.9576 20.8405 26.7182L21.8993 27.6761C22.1262 27.903 22.4413 27.9409 22.7565 27.777C23.0212 27.6131 23.1346 27.3232 23.0716 26.9955L22.7817 25.5837C23.2607 25.2433 23.7397 24.8526 24.1808 24.424L25.4918 24.9786C25.8069 25.1047 26.0968 25.0417 26.3363 24.7517C26.5506 24.5249 26.5758 24.1971 26.3994 23.9198L25.6304 22.6971C25.9708 22.2055 26.2607 21.6761 26.5254 21.1215L27.975 21.1845C28.3027 21.2097 28.58 21.0206 28.6809 20.7181C28.7817 20.403 28.6935 20.1005 28.4288 19.8988L27.2943 19.0038C27.4456 18.4366 27.5716 17.8315 27.6221 17.2139L28.9834 16.7727C29.2985 16.6592 29.5002 16.4197 29.5002 16.092C29.5002 15.7643 29.2985 15.5248 28.9834 15.4113L27.6221 14.9702C27.5716 14.3525 27.4456 13.7601 27.2943 13.1802L28.4288 12.2853C28.6809 12.0836 28.7817 11.7937 28.6809 11.4785C28.58 11.176 28.3027 10.9869 27.975 11.0121L26.5254 11.0626C26.2607 10.5079 25.9708 9.99112 25.6304 9.48692L26.3994 8.26422C26.5758 7.99951 26.5506 7.67178 26.3363 7.44488C26.0968 7.16757 25.8069 7.09194 25.4918 7.21799L24.1808 7.76001C23.7397 7.34404 23.2607 6.94068 22.7817 6.60034L23.0716 5.20117C23.1346 4.86083 23.0212 4.57091 22.7565 4.41965C22.4413 4.25578 22.1388 4.28099 21.8993 4.52049L20.8405 5.46588C20.2733 5.21377 19.706 5.01209 19.1262 4.84822L18.9245 3.42384C18.8741 3.09611 18.6598 2.86922 18.3447 2.80619C18.0043 2.76837 17.7144 2.90703 17.5884 3.17174L16.9077 4.47007C16.5926 4.44486 16.3026 4.43225 16.0001 4.43225C15.685 4.43225 15.4077 4.44486 15.0799 4.47007L14.4119 3.17174C14.2732 2.90703 13.9833 2.76837 13.6429 2.80619C13.3278 2.86922 13.1135 3.09611 13.0631 3.42384L12.8614 4.84822C12.2816 5.01209 11.7144 5.21377 11.1597 5.46588L10.1009 4.52049C9.8488 4.28099 9.54628 4.25578 9.24375 4.41965C8.96644 4.57091 8.85299 4.86083 8.91602 5.20117L9.21854 6.60034C8.72694 6.94068 8.24795 7.34404 7.81937 7.76001L6.49583 7.21799C6.1807 7.09194 5.89078 7.16757 5.65129 7.44488C5.4496 7.67178 5.42439 7.99951 5.58826 8.25161L6.35717 9.48692C6.01684 9.99112 5.73952 10.5079 5.46221 11.0626L4.01262 11.0121C3.69749 10.9869 3.42018 11.176 3.30673 11.4785C3.20589 11.7937 3.29412 12.0836 3.55883 12.2853L4.6933 13.1802C4.54203 13.7601 4.41598 14.3525 4.37817 14.9702L3.00421 15.4113C2.68908 15.5122 2.5 15.7517 2.5 16.092C2.5 16.4324 2.68908 16.6719 3.00421 16.7727L4.37817 17.2139C4.41598 17.8315 4.54203 18.4366 4.6933 19.0038L3.55883 19.8988C3.30673 20.1005 3.21849 20.403 3.30673 20.7181C3.42018 21.0206 3.69749 21.2097 4.01262 21.1845L5.46221 21.1215C5.72692 21.6761 6.01684 22.2055 6.35717 22.6971L5.58826 23.9198C5.41179 24.1971 5.437 24.5249 5.65129 24.7517C5.89078 25.0417 6.1807 25.1047 6.49583 24.9786L7.81937 24.424C8.24795 24.8526 8.72694 25.2433 9.21854 25.5837L8.91602 26.9955C8.85299 27.3232 8.96644 27.6131 9.24375 27.777C9.54628 27.9409 9.8614 27.903 10.1009 27.6761L11.1471 26.7182C11.7144 26.9576 12.2816 27.1845 12.8614 27.3358L13.0631 28.7728C13.1135 29.1005 13.3278 29.34 13.6556 29.3904C13.9833 29.4409 14.2732 29.2896 14.4119 29.0123L15.0799 27.714C15.3951 27.7392 15.685 27.7644 16.0001 27.7644ZM19.0379 15.2727C18.4707 13.7601 17.3363 12.9281 15.9623 12.9281C15.748 12.9281 15.5211 12.9533 15.143 13.0416L11.79 7.30623C13.0505 6.68857 14.4749 6.34824 16.0001 6.34824C21.143 6.34824 25.1767 10.2432 25.58 15.2727H19.0379ZM6.38238 16.1046C6.38238 12.8273 7.92021 9.9407 10.3278 8.17598L13.706 13.9491C13.0757 14.6298 12.7732 15.3609 12.7732 16.1424C12.7732 16.8987 13.0505 17.592 13.706 18.2979L10.2522 23.9576C7.8824 22.1929 6.38238 19.3441 6.38238 16.1046ZM14.5253 16.1298C14.5253 15.3231 15.2186 14.6928 15.9749 14.6928C16.7816 14.6928 17.4497 15.3231 17.4497 16.1298C17.4497 16.924 16.7816 17.5794 15.9749 17.5794C15.2186 17.5794 14.5253 16.924 14.5253 16.1298ZM16.0001 25.8484C14.4371 25.8484 12.9875 25.4955 11.7018 24.8526L15.143 19.2307C15.5085 19.3189 15.748 19.3441 15.9623 19.3441C17.3489 19.3441 18.4833 18.487 19.0379 16.9492H25.58C25.1767 21.9534 21.143 25.8484 16.0001 25.8484Z" fill="#767779"/>
</svg>
