<svg width="32" height="32" viewBox="0 0 32 32" fill="none" xmlns="http://www.w3.org/2000/svg">
<path fill-rule="evenodd" clip-rule="evenodd" d="M16.8401 27.7191C16.5508 27.7424 16.2808 27.7641 16 27.7641C15.7067 27.7641 15.4352 27.7423 15.1449 27.7189C15.1233 27.7172 15.1017 27.7154 15.0798 27.7137L14.4118 29.012C14.2731 29.2893 13.9832 29.4406 13.6555 29.3902C13.3277 29.3397 13.1134 29.1002 13.063 28.7725L12.8613 27.3355C12.2815 27.1843 11.7143 26.9574 11.1471 26.7179L10.1008 27.6759C9.86134 27.9028 9.54622 27.9406 9.2437 27.7767C8.96639 27.6129 8.85294 27.3229 8.91597 26.9952L9.21849 25.5834C8.72689 25.2431 8.2479 24.8523 7.81933 24.4238L6.4958 24.9784C6.18067 25.1044 5.89076 25.0414 5.65126 24.7515C5.43697 24.5246 5.41176 24.1969 5.58824 23.9196L6.35714 22.6969C6.01681 22.2053 5.72689 21.6759 5.46218 21.1213L4.01261 21.1843C3.69748 21.2095 3.42017 21.0204 3.30672 20.7179C3.21849 20.4028 3.30672 20.1002 3.55882 19.8986L4.69328 19.0036C4.54202 18.4364 4.41597 17.8313 4.37815 17.2137L3.0042 16.7725C2.68908 16.6717 2.5 16.4322 2.5 16.0918C2.5 15.7515 2.68908 15.512 3.0042 15.4112L4.37815 14.97C4.41597 14.3523 4.54202 13.7599 4.69328 13.1801L3.55882 12.2851C3.29412 12.0834 3.20588 11.7935 3.30672 11.4784C3.42017 11.1759 3.69748 10.9868 4.01261 11.012L5.46218 11.0624C5.7395 10.5078 6.01681 9.991 6.35714 9.4868L5.58824 8.25151C5.42437 7.99941 5.44958 7.67167 5.65126 7.44478C5.89076 7.16747 6.18067 7.09184 6.4958 7.21789L7.81933 7.75991C8.2479 7.34394 8.72689 6.94058 9.21849 6.60025L8.91597 5.20109C8.85294 4.86075 8.96639 4.57083 9.2437 4.41957C9.54622 4.25571 9.84874 4.28092 10.1008 4.52041L11.1597 5.46579C11.7143 5.21369 12.2815 5.01201 12.8613 4.84815L13.063 3.42378C13.1134 3.09604 13.3277 2.86915 13.6429 2.80613C13.9832 2.76831 14.2731 2.90697 14.4118 3.17167L15.0798 4.46999C15.4076 4.44478 15.6849 4.43218 16 4.43218C16.3025 4.43218 16.5924 4.44478 16.9076 4.46999L17.5882 3.17167C17.7143 2.90697 18.0042 2.76831 18.3445 2.80613C18.6597 2.86915 18.8739 3.09604 18.9244 3.42378L19.1261 4.84815C19.7059 5.01201 20.2731 5.21369 20.8403 5.46579L21.8992 4.52041C22.1387 4.28092 22.4412 4.25571 22.7563 4.41957C23.021 4.57083 23.1345 4.86075 23.0714 5.20109L22.7815 6.60025C23.2605 6.94058 23.7395 7.34394 24.1807 7.75991L25.4916 7.21789C25.8067 7.09184 26.0966 7.16747 26.3361 7.44478C26.5504 7.67167 26.5756 7.99941 26.3992 8.26411L25.6303 9.4868C25.9706 9.991 26.2605 10.5078 26.5252 11.0624L27.9748 11.012C28.3025 10.9868 28.5798 11.1759 28.6807 11.4784C28.7815 11.7935 28.6807 12.0834 28.4286 12.2851L27.2941 13.1801C27.4454 13.7599 27.5714 14.3523 27.6218 14.97L28.9832 15.4112C29.2983 15.5246 29.5 15.7641 29.5 16.0918C29.5 16.4196 29.2983 16.6591 28.9832 16.7725L27.6218 17.2137C27.5714 17.8313 27.4454 18.4364 27.2941 19.0036L28.4286 19.8986C28.6933 20.1002 28.7815 20.4028 28.6807 20.7179C28.5798 21.0204 28.3025 21.2095 27.9748 21.1843L26.5252 21.1213C26.2605 21.6759 25.9706 22.2053 25.6303 22.6969L26.3992 23.9196C26.5756 24.1969 26.5504 24.5246 26.3361 24.7515C26.0966 25.0414 25.8067 25.1044 25.4916 24.9784L24.1807 24.4238C23.7395 24.8523 23.2605 25.2431 22.7815 25.5834L23.0714 26.9952C23.1345 27.3229 23.021 27.6129 22.7563 27.7767C22.4412 27.9406 22.1261 27.9028 21.8992 27.6759L20.8403 26.7179C20.2731 26.9574 19.7059 27.1843 19.1261 27.3355L18.9244 28.7725C18.8739 29.1002 18.6597 29.3397 18.3445 29.3902C18.0042 29.4406 17.7143 29.2893 17.5882 29.012L16.9076 27.7137C16.885 27.7155 16.8625 27.7173 16.8401 27.7191ZM15.9622 12.928C17.3361 12.928 18.4706 13.7599 19.0378 15.2725H25.5798C25.1765 10.2431 21.1429 6.34815 16 6.34815C14.4748 6.34815 13.0504 6.68848 11.7899 7.30613L15.1429 13.0414C15.521 12.9532 15.7479 12.928 15.9622 12.928ZM10.3277 8.17588C7.92017 9.94058 6.38235 12.8271 6.38235 16.1044C6.38235 19.3439 7.88235 22.1927 10.2521 23.9574L13.7059 18.2977C13.0504 17.5918 12.7731 16.8986 12.7731 16.1423C12.7731 15.3608 13.0756 14.6297 13.7059 13.949L10.3277 8.17588ZM15.9748 14.6927C15.2185 14.6927 14.5252 15.3229 14.5252 16.1297C14.5252 16.9238 15.2185 17.5792 15.9748 17.5792C16.7815 17.5792 17.4496 16.9238 17.4496 16.1297C17.4496 15.3229 16.7815 14.6927 15.9748 14.6927ZM11.7017 24.8523C12.9874 25.4952 14.437 25.8481 16 25.8481C21.1429 25.8481 25.1765 21.9532 25.5798 16.949H19.0378C18.4832 18.4868 17.3487 19.3439 15.9622 19.3439C15.7479 19.3439 15.5084 19.3187 15.1429 19.2305L11.7017 24.8523ZM24.0309 13.9521H19.8733C19.0437 12.5031 17.6575 11.6075 15.9622 11.6075C15.9198 11.6075 15.8776 11.6082 15.8354 11.6096L13.7131 7.97944C14.4315 7.77696 15.1973 7.66877 16 7.66877C19.9342 7.66877 23.1209 10.304 24.0309 13.9521ZM7.70288 16.1045C7.70288 13.7998 8.57343 11.7329 9.9962 10.2241L12.1202 13.8539C11.6877 14.5473 11.4525 15.3141 11.4525 16.1423C11.4525 16.9527 11.6749 17.6941 12.1073 18.3823L9.94846 21.92C8.55159 20.4215 7.70288 18.3825 7.70288 16.1045ZM13.6486 24.2011C14.3853 24.4141 15.1716 24.5277 16 24.5277C19.933 24.5277 23.1167 21.8949 24.0289 18.2696H19.8849C19.0673 19.7392 17.6807 20.6646 15.9622 20.6646C15.9134 20.6646 15.8644 20.6637 15.815 20.6618L13.6486 24.2011Z" fill="black"/>
</svg>
